<svg id="Layer_1" enable-background="new 0 0 512 512" height="512" viewBox="0 0 512 512" width="512" xmlns="http://www.w3.org/2000/svg"><path d="m256.352 497.632v14.368h-172.864l-56-52.235c-17.6-17.6-27.488-41.472-27.488-66.368v-119.648c0-17.6 13.056-32.576 30.187-34.581 19.871-2.458 38.08 13.214 38.08 33.899v103.957c0 6.336 2.517 12.416 6.997 16.896-15.995-20.852-3.086-51.358 22.869-54.56.085-.021.16-.032.245-.032 9.651-1.236 20.339 1.94 28.16 9.749l43.456 43.456c50.023 9.882 86.358 53.773 86.358 105.099z" fill="#ffdfba"/><path d="m255.232 482.133h-65.301c-49.205 0-96.587-18.667-132.576-52.235-17.583-17.583-27.488-41.471-27.488-66.368 0-130.373-.138-121.038.32-124.363 19.871-2.458 38.08 13.214 38.08 33.899v100.149c0-17.391 13.004-31.776 29.867-33.856 0 7.103-.152 3.077.245-.032 9.651-1.236 20.339 1.94 28.16 9.749l43.456 43.456c45.034 8.897 78.784 45.26 85.237 89.601z" fill="#ffebd2"/><path d="m351.573 0c-41.128 0-76.942 22.736-95.573 56.322-18.631-33.586-54.445-56.322-95.573-56.322-60.157 0-109.227 48.736-109.227 109.227 0 122.88 204.8 218.453 204.8 218.453s204.8-95.573 204.8-218.453c0-60.157-48.736-109.227-109.227-109.227z" fill="#ea8692"/><path d="m460.075 121.813c-19.706 35.871-53.107 67.575-86.275 92.791-57.615 43.803-140.054 47.09-203.134-1.271-33.024-25.319-66.048-57.027-85.333-92.836-27.513-51.087 9.98-120.497 75.094-120.497 41.13 0 76.938 22.741 95.573 56.32 18.635-33.579 54.443-56.32 95.573-56.32 65.398 0 115.981 56.989 108.502 121.813z" fill="#fe929f"/><path d="m361.099 87.315c8.666 3.791 14.368 12.431 14.368 21.912 0 5.594-2.006 15.32-11.567 29.89-5.171 7.881-2.975 18.461 4.906 23.632 7.913 5.192 18.481 2.942 23.631-4.906 11.389-17.356 17.163-33.713 17.163-48.616 0-22.83-13.576-43.888-34.818-53.183-8.636-3.779-18.699.16-22.477 8.794-3.778 8.635.16 18.699 8.794 22.477z" fill="#ffa4b8"/><path d="m155.136 434.976c.185 15.387-18.445 23.008-29.131 12.288l-47.161-48.137c-13.4-13.677-14.529-35.936-.732-49.89l72.021 73.461c3.392 3.382 5.056 7.841 5.003 12.278z" fill="#ffdfba"/><path d="m255.648 497.632v14.368h172.864l56-52.235c17.6-17.6 27.488-41.472 27.488-66.368v-119.648c0-17.6-13.056-32.576-30.187-34.581-19.871-2.458-38.08 13.214-38.08 33.899v103.957c0 6.336-2.517 12.416-6.997 16.896 15.995-20.852 3.086-51.358-22.869-54.56-.085-.021-.16-.032-.245-.032-9.651-1.236-20.339 1.94-28.16 9.749l-43.456 43.456c-50.023 9.882-86.358 53.773-86.358 105.099z" fill="#ffdfba"/><path d="m256.768 482.133h65.301c49.205 0 96.587-18.667 132.576-52.235 17.583-17.583 27.488-41.471 27.488-66.368 0-130.373.138-121.038-.32-124.363-19.871-2.458-38.08 13.214-38.08 33.899v100.149c0-17.391-13.004-31.776-29.867-33.856 0 7.103.152 3.077-.245-.032-9.651-1.236-20.339 1.94-28.16 9.749l-43.456 43.456c-45.034 8.897-78.784 45.26-85.237 89.601z" fill="#ffebd2"/><path d="m356.864 434.976c-.185 15.387 18.445 23.008 29.131 12.288l47.161-48.137c13.4-13.677 14.529-35.936.732-49.89l-72.021 73.461c-3.392 3.382-5.056 7.841-5.003 12.278z" fill="#ffdfba"/></svg>